<?xml version="1.0" encoding="UTF-8" standalone="no"?>
<svg
   xmlns:dc="http://purl.org/dc/elements/1.1/"
   xmlns:cc="http://creativecommons.org/ns#"
   xmlns:rdf="http://www.w3.org/1999/02/22-rdf-syntax-ns#"
   xmlns:svg="http://www.w3.org/2000/svg"
   xmlns="http://www.w3.org/2000/svg"
   xmlns:sodipodi="http://sodipodi.sourceforge.net/DTD/sodipodi-0.dtd"
   xmlns:inkscape="http://www.inkscape.org/namespaces/inkscape"
   version="1.1"
   id="svg3238"
   inkscape:version="0.48.5 r10040"
   x="0px"
   y="0px"
   width="90"
   height="21"
   viewBox="0 0 90 21"
   enable-background="new 0 0 107 21"
   xml:space="preserve"
   sodipodi:docname="haxe-logo-horizontal-on-dark.svg"><metadata
     id="metadata27"><rdf:RDF><cc:Work
         rdf:about=""><dc:format>image/svg+xml</dc:format><dc:type
           rdf:resource="http://purl.org/dc/dcmitype/StillImage" /></cc:Work></rdf:RDF></metadata><defs
     id="defs25" /><sodipodi:namedview
     pagecolor="#ffffff"
     bordercolor="#666666"
     borderopacity="1"
     objecttolerance="10"
     gridtolerance="10"
     guidetolerance="10"
     inkscape:pageopacity="0"
     inkscape:pageshadow="2"
     inkscape:window-width="640"
     inkscape:window-height="480"
     id="namedview23"
     showgrid="false"
     inkscape:zoom="3.1588785"
     inkscape:cx="53.5"
     inkscape:cy="10.5"
     inkscape:window-x="0"
     inkscape:window-y="0"
     inkscape:window-maximized="0"
     inkscape:current-layer="layer1" /><g
     id="layer1"
     transform="translate(0,-1031.3622)"
     inkscape:label="Layer 1"
     inkscape:groupmode="layer"><g
       id="g3332"
       transform="matrix(0.24008588,0,0,0.24008588,-2.2890548,790.44159)"><path
         id="path24"
         inkscape:connector-curvature="0"
         d="m 53.269,1014.41 -24.501,-2.239 -19.233,-8.694 h 21.867 l 21.867,10.923"
         style="fill:#fbc707" /><path
         id="path26"
         inkscape:connector-curvature="0"
         d="m 53.269,1014.41 25.967,-3.008 17.769,-7.926 H 75.136 L 53.269,1014.4"
         style="fill:#fbc707" /><path
         id="path28"
         inkscape:connector-curvature="0"
         d="m 53.269,1080.011 21.867,2.607 21.869,8.326 H 75.136 L 53.269,1080"
         style="fill:#f68712" /><path
         id="path30"
         inkscape:connector-curvature="0"
         d="m 53.269,1080.011 -21.867,2.351 -21.867,8.583 H 31.402 L 53.269,1080"
         style="fill:#f25c19" /><path
         id="path32"
         inkscape:connector-curvature="0"
         d="m 20.468,1047.211 -3.228,25.674 -7.706,18.06 v -21.867 L 20.468,1047.2"
         style="fill:#fff200" /><path
         id="path34"
         inkscape:connector-curvature="0"
         d="m 20.468,1047.211 -2.459,-23.513 -8.475,-20.222 v 21.867 l 10.934,21.857"
         style="fill:#fff200" /><path
         id="path36"
         inkscape:connector-curvature="0"
         d="m 86.069,1047.211 3.156,-23.769 7.779,-19.966 v 21.867 L 86.069,1047.2"
         style="fill:#f1471d" /><path
         id="path38"
         inkscape:connector-curvature="0"
         d="m 86.069,1047.211 2.133,24.137 8.802,19.597 v -21.867 L 86.069,1047.2"
         style="fill:#f1471d" /><path
         id="path16"
         inkscape:connector-curvature="0"
         d="m 9.534,1003.476 43.734,10.934 -4.006,29.783 -28.794,3 L 9.534,1003.5"
         style="fill:#fab20b" /><path
         id="path22"
         inkscape:connector-curvature="0"
         d="m 9.534,1090.945 10.933,-43.734 29.307,2.876 3.494,29.9 -43.734,10.913"
         style="fill:#f89c0e" /><path
         id="path18"
         inkscape:connector-curvature="0"
         d="M 97.005,1003.476 86.069,1047.21 57.46,1042.656 53.268,1014.409 97.005,1003.5"
         style="fill:#f47216" /><path
         id="path20"
         inkscape:connector-curvature="0"
         d="m 97.005,1090.945 -43.736,-10.934 4.448,-29.412 28.353,-3.388 10.935,43.689"
         style="fill:#f25c19" /><path
         id="path14"
         inkscape:connector-curvature="0"
         d="m 53.269,1014.41 -32.801,32.801 32.801,32.8 32.801,-32.801 -32.801,-32.81"
         style="fill:#f68712" /></g><g
       id="g3347"
       transform="matrix(0.63314038,0,0,0.63314038,21.66293,338.04867)"><path
         id="path40"
         inkscape:connector-curvature="0"
         d="m 9.535,1100.568 h 6.814 v 7.678 h 6.379 v -7.678 h 6.814 v 22.112 h -6.814 v -8.764 h -6.379 v 8.764 H 9.535 v -22.112"
         style="fill:#ffffff" /><path
         id="path42"
         inkscape:connector-curvature="0"
         d="m 44.536,1114.78 -1.986,-6.81 h -0.061 l -2.135,6.81 h 4.182 z m -5.357,-14.212 h 6.655 l 8.054,22.112 h -7.061 l -0.929,-3.157 h -7.031 l -0.99,3.157 H 31.03 l 8.149,-22.08"
         style="fill:#ffffff" /><path
         id="path44"
         inkscape:connector-curvature="0"
         d="m 61.262,1110.911 -7.279,-10.344 h 7.99 l 3.344,6 3.285,-6.007 h 7.555 l -7.089,10.406 7.894,11.706 h -8.206 l -3.779,-6.597 -3.902,6.597 H 53.27 l 7.992,-11.772"
         style="fill:#ffffff" /><path
         id="path46"
         inkscape:connector-curvature="0"
         d="m 78.359,1100.568 h 18.302 v 5.665 H 85.172 v 2.758 H 95.61 v 5.268 H 85.172 v 2.755 h 11.832 v 5.667 H 78.359 v -22.113"
         style="fill:#ffffff" /></g></g></svg>